<svg xmlns="http://www.w3.org/2000/svg" version="1.1" xmlns:xlink="http://www.w3.org/1999/xlink" xmlns:svgjs="http://svgjs.com/svgjs" width="78.23" height="130.11"><svg xmlns="http://www.w3.org/2000/svg" viewBox="0 0 78.23 130.11"><defs><style>.cls-1{fill:#3b352e;}</style></defs><g id="SvgjsG1000"><path class="cls-1" d="M286.39,221.05l-41-24.75V184.51a16.11,16.11,0,0,1,6-12.56v10.58a3.7,3.7,0,0,0,7.4,0V169.41c0-.27,0-.52,0-.79a16.54,16.54,0,0,1,2.75-.25,16.16,16.16,0,0,1,16.14,16.14v13.13a3.7,3.7,0,0,0,7.4,0V184.51a23.44,23.44,0,0,0-27.7-23.14,23.52,23.52,0,0,0-45.63,8v13.12s0,.06,0,.09,0,.27,0,.41,0,.21.05.32.07.23.11.35.07.22.12.33.11.21.17.32.11.2.17.29a3.22,3.22,0,0,0,.24.28,3,3,0,0,0,.23.27,2.65,2.65,0,0,0,.26.21,2.43,2.43,0,0,0,.32.24l.07.06,69,41.68a3.7,3.7,0,1,0,3.83-6.33ZM235.3,153.27a16.14,16.14,0,0,1,15.11,10.52A23.55,23.55,0,0,0,238,184.51v7.33l-18.86-11.39v-11A16.16,16.16,0,0,1,235.3,153.27Z" transform="translate(-209.94 -145.87)"></path><path class="cls-1" d="M286.3,238.83c0-.11,0-.22-.05-.32a3.58,3.58,0,0,0-.11-.35c0-.11-.07-.23-.12-.34a2.38,2.38,0,0,0-.17-.31,2.91,2.91,0,0,0-.17-.3,3.11,3.11,0,0,0-.23-.28c-.08-.09-.15-.18-.24-.27l-.26-.21a2.67,2.67,0,0,0-.32-.24.18.18,0,0,0-.07-.05l-69-41.69a3.7,3.7,0,1,0-3.82,6.33l41,24.75v11.79a16.12,16.12,0,0,1-6,12.57V239.32a3.7,3.7,0,0,0-7.39,0v13.13c0,.26,0,.52,0,.78a15.74,15.74,0,0,1-2.76.25,16.16,16.16,0,0,1-16.14-16.14V224.22a3.7,3.7,0,0,0-7.4,0v13.12a23.44,23.44,0,0,0,27.7,23.15,23.52,23.52,0,0,0,45.63-8V239.32s0,0,0-.08S286.32,239,286.3,238.83Zm-23.49,29.76a16.16,16.16,0,0,1-15.11-10.52,23.56,23.56,0,0,0,12.39-20.73V230L279,241.41v11A16.16,16.16,0,0,1,262.81,268.59Z" transform="translate(-209.94 -145.87)"></path></g></svg><style>@media (prefers-color-scheme: light) { :root { filter: none; } }
</style></svg>