<svg xmlns="http://www.w3.org/2000/svg" viewBox="0 0 13.95 23.2"><defs><style>.cls-1{fill:#3b352e;}</style></defs><g id="OBJECTS"><path class="cls-1" d="M223.57,159.28l-7.3-4.41v-2.11a2.89,2.89,0,0,1,1.07-2.24v1.89a.66.66,0,1,0,1.32,0v-2.34s0-.09,0-.14a2.7,2.7,0,0,1,.49,0,2.88,2.88,0,0,1,2.88,2.87v2.34a.66.66,0,1,0,1.32,0v-2.34a4.2,4.2,0,0,0-4.2-4.19,3.64,3.64,0,0,0-.74.07,4.19,4.19,0,0,0-8.13,1.43v2.43a.13.13,0,0,1,0,.06.14.14,0,0,1,0,.06s0,0,0,.06l0,0,0,.06.05.05s0,0,0,0,0,0,0,0l.06.05h0l12.31,7.43a.72.72,0,0,0,.34.09.68.68,0,0,0,.57-.31A.67.67,0,0,0,223.57,159.28Zm-9.11-12.09a2.88,2.88,0,0,1,2.7,1.88,4.19,4.19,0,0,0-2.21,3.69v1.31l-3.37-2v-2A2.89,2.89,0,0,1,214.46,147.19Z" transform="translate(-209.94 -145.87)"/><path class="cls-1" d="M223.56,162.45a.13.13,0,0,1,0-.06s0,0,0-.06,0,0,0-.06l0-.05,0-.06,0,0,0-.05,0,0-.06-.05h0l-12.31-7.43a.66.66,0,0,0-.91.22.67.67,0,0,0,.23.91l7.31,4.41v2.11a2.87,2.87,0,0,1-1.08,2.24v-1.89a.66.66,0,1,0-1.32,0v2.34c0,.05,0,.09,0,.14a2.7,2.7,0,0,1-.49,0,2.88,2.88,0,0,1-2.88-2.87v-2.34a.66.66,0,0,0-1.32,0v2.34a4.2,4.2,0,0,0,4.2,4.19,3.64,3.64,0,0,0,.74-.07,4.19,4.19,0,0,0,8.14-1.43v-2.43Zm-4.19,5.31a2.88,2.88,0,0,1-2.7-1.88,4.19,4.19,0,0,0,2.21-3.69v-1.31l3.37,2v2A2.88,2.88,0,0,1,219.37,167.76Z" transform="translate(-209.94 -145.87)"/></g></svg>